<svg width="96" height="14" viewBox="0 0 96 14" fill="none" xmlns="http://www.w3.org/2000/svg">
<path d="M0.0634766 12.6045V9.34375H1.42578L1.71582 11.5059L1.95312 11.7783C2.2168 11.8604 2.47754 11.9219 2.73535 11.9629C2.99902 12.0039 3.26562 12.0244 3.53516 12.0244C4.23828 12.0244 4.80078 11.8691 5.22266 11.5586C5.64453 11.248 5.85547 10.835 5.85547 10.3193C5.85547 9.8623 5.70605 9.45801 5.40723 9.10645C5.11426 8.74902 4.62207 8.39746 3.93066 8.05176C3.81934 7.99316 3.64941 7.91113 3.4209 7.80566C2.60059 7.4248 1.98535 7.06152 1.5752 6.71582C1.1709 6.37598 0.860352 5.99219 0.643555 5.56445C0.426758 5.13672 0.318359 4.7002 0.318359 4.25488C0.318359 3.22363 0.710938 2.37402 1.49609 1.70605C2.28711 1.03809 3.30957 0.704102 4.56348 0.704102C5.1084 0.704102 5.66211 0.756836 6.22461 0.862305C6.78711 0.961914 7.36133 1.11426 7.94727 1.31934V4.2373H6.64648L6.34766 2.36523L6.09277 2.11035C5.92285 2.02246 5.72949 1.95801 5.5127 1.91699C5.2959 1.87598 5.0498 1.85547 4.77441 1.85547C4.13574 1.85547 3.62305 2.01367 3.23633 2.33008C2.84961 2.64648 2.65625 3.05957 2.65625 3.56934C2.65625 3.94434 2.76465 4.28418 2.98145 4.58887C3.2041 4.8877 3.58203 5.19531 4.11523 5.51172C4.24414 5.59375 4.60156 5.7666 5.1875 6.03027C5.7793 6.28809 6.27734 6.5459 6.68164 6.80371C7.20312 7.1377 7.60449 7.53906 7.88574 8.00781C8.16699 8.47656 8.30762 8.97754 8.30762 9.51074C8.30762 10.6123 7.87109 11.5029 6.99805 12.1826C6.125 12.8623 4.9707 13.2021 3.53516 13.2021C2.94922 13.2021 2.36035 13.1494 1.76855 13.0439C1.17676 12.9443 0.608398 12.7979 0.0634766 12.6045ZM9.21289 4.2373H13.6777V5.06348L12.7988 5.18652L12.5967 5.44141L14.0557 10.627L16.1562 4.2373H17.958L19.9268 10.627L21.5088 5.42383L21.377 5.16895L20.4277 5.06348V4.2373H23.8291V5.06348L22.8184 5.18652L20.375 13H18.5557L16.5605 6.54004L14.416 13H12.6143L10.2939 5.16895L9.21289 5.06348V4.2373ZM30.1045 7.4541V7.26074C30.1045 6.52832 29.9697 5.96875 29.7002 5.58203C29.4307 5.18945 29.0439 4.99316 28.54 4.99316C27.9893 4.99316 27.5469 5.21289 27.2129 5.65234C26.8789 6.08594 26.6973 6.68652 26.668 7.4541H30.1045ZM32.4688 10.7676V12.1035C31.8535 12.4551 31.2324 12.7188 30.6055 12.8945C29.9785 13.0703 29.3516 13.1582 28.7246 13.1582C27.3828 13.1582 26.3047 12.7451 25.4902 11.9189C24.6816 11.0928 24.2773 10 24.2773 8.64062C24.2773 7.27539 24.6904 6.16211 25.5166 5.30078C26.3486 4.43359 27.418 4 28.7246 4C29.9082 4 30.8281 4.35742 31.4844 5.07227C32.1406 5.78125 32.4688 6.78027 32.4688 8.06934V8.41211H26.5801V8.46484C26.5801 9.49023 26.8379 10.2959 27.3535 10.8818C27.8691 11.4678 28.5781 11.7607 29.4805 11.7607C29.9551 11.7607 30.4385 11.6787 30.9307 11.5146C31.4229 11.3506 31.9355 11.1016 32.4688 10.7676ZM39.5439 7.4541V7.26074C39.5439 6.52832 39.4092 5.96875 39.1396 5.58203C38.8701 5.18945 38.4834 4.99316 37.9795 4.99316C37.4287 4.99316 36.9863 5.21289 36.6523 5.65234C36.3184 6.08594 36.1367 6.68652 36.1074 7.4541H39.5439ZM41.9082 10.7676V12.1035C41.293 12.4551 40.6719 12.7188 40.0449 12.8945C39.418 13.0703 38.791 13.1582 38.1641 13.1582C36.8223 13.1582 35.7441 12.7451 34.9297 11.9189C34.1211 11.0928 33.7168 10 33.7168 8.64062C33.7168 7.27539 34.1299 6.16211 34.9561 5.30078C35.7881 4.43359 36.8574 4 38.1641 4C39.3477 4 40.2676 4.35742 40.9238 5.07227C41.5801 5.78125 41.9082 6.78027 41.9082 8.06934V8.41211H36.0195V8.46484C36.0195 9.49023 36.2773 10.2959 36.793 10.8818C37.3086 11.4678 38.0176 11.7607 38.9199 11.7607C39.3945 11.7607 39.8779 11.6787 40.3701 11.5146C40.8623 11.3506 41.375 11.1016 41.9082 10.7676ZM44 5.54688H42.8311V4.86133L44.1582 4.10547L45.0986 2.2334H46.2324V4.46582H48.8955V5.54688H46.2324V10.0293C46.2324 10.7031 46.3408 11.1631 46.5576 11.4092C46.7744 11.6553 47.1641 11.7783 47.7266 11.7783C47.9492 11.7783 48.1543 11.7695 48.3418 11.752C48.5352 11.7285 48.7197 11.6963 48.8955 11.6553V12.5166C48.3799 12.7041 47.8877 12.8477 47.4189 12.9473C46.9561 13.041 46.5312 13.0879 46.1445 13.0879C45.8281 13.0879 45.5469 13.0557 45.3008 12.9912C45.0605 12.9268 44.8438 12.8271 44.6504 12.6924C44.4102 12.5342 44.2402 12.3379 44.1406 12.1035C44.0469 11.8633 44 11.4238 44 10.7852V5.54688ZM49.4756 0.923828H54.5732V1.80273L53.4922 1.89062L53.2021 2.18066V6.12695H58.4053V2.18066L58.1416 1.89062L57.0605 1.80273V0.923828H62.1318V1.80273L61.0859 1.89062L60.8047 2.18066V11.7432L61.0859 12.0244L62.1318 12.1211V13H57.0605V12.1211L58.1416 12.0244L58.4053 11.7432V7.20801H53.2021V11.7432L53.4922 12.0244L54.5732 12.1211V13H49.4756V12.1211L50.5215 12.0244L50.8115 11.7432V2.18066L50.5215 1.89062L49.4756 1.80273V0.923828ZM69.1104 7.4541V7.26074C69.1104 6.52832 68.9756 5.96875 68.7061 5.58203C68.4365 5.18945 68.0498 4.99316 67.5459 4.99316C66.9951 4.99316 66.5527 5.21289 66.2188 5.65234C65.8848 6.08594 65.7031 6.68652 65.6738 7.4541H69.1104ZM71.4746 10.7676V12.1035C70.8594 12.4551 70.2383 12.7188 69.6113 12.8945C68.9844 13.0703 68.3574 13.1582 67.7305 13.1582C66.3887 13.1582 65.3105 12.7451 64.4961 11.9189C63.6875 11.0928 63.2832 10 63.2832 8.64062C63.2832 7.27539 63.6963 6.16211 64.5225 5.30078C65.3545 4.43359 66.4238 4 67.7305 4C68.9141 4 69.834 4.35742 70.4902 5.07227C71.1465 5.78125 71.4746 6.78027 71.4746 8.06934V8.41211H65.5859V8.46484C65.5859 9.49023 65.8438 10.2959 66.3594 10.8818C66.875 11.4678 67.584 11.7607 68.4863 11.7607C68.9609 11.7607 69.4443 11.6787 69.9365 11.5146C70.4287 11.3506 70.9414 11.1016 71.4746 10.7676ZM78.2246 11.2334V8.29785C77.041 8.56152 76.2324 8.84863 75.7988 9.15918C75.3652 9.46973 75.1484 9.8916 75.1484 10.4248C75.1484 10.8408 75.2686 11.1719 75.5088 11.418C75.749 11.6582 76.0742 11.7783 76.4844 11.7783C76.7129 11.7783 76.9707 11.7344 77.2578 11.6465C77.5508 11.5527 77.873 11.415 78.2246 11.2334ZM78.2246 11.9717C77.6152 12.3877 77.0615 12.6895 76.5635 12.877C76.0654 13.0645 75.5879 13.1582 75.1309 13.1582C74.4395 13.1582 73.874 12.9414 73.4346 12.5078C72.9951 12.0684 72.7754 11.5059 72.7754 10.8203C72.7754 9.97656 73.0977 9.32617 73.7422 8.86914C74.3867 8.41211 75.8896 7.91699 78.251 7.38379V6.84766C78.251 6.19727 78.1133 5.72266 77.8379 5.42383C77.5625 5.125 77.1289 4.97559 76.5371 4.97559C76.4082 4.97559 76.2734 4.98438 76.1328 5.00195C75.9922 5.01953 75.8398 5.0459 75.6758 5.08105V6.76855H74.0146C73.7275 6.76855 73.5166 6.71582 73.3818 6.61035C73.2529 6.50488 73.1885 6.33789 73.1885 6.10938C73.1885 5.54688 73.5664 5.05762 74.3223 4.6416C75.0781 4.22559 76.0068 4.01758 77.1084 4.01758C78.3447 4.01758 79.2148 4.25488 79.7188 4.72949C80.2227 5.2041 80.4746 6.03027 80.4746 7.20801V11.8662L80.7119 12.1211L81.6699 12.209V13H78.4619L78.2246 11.9717ZM82.3643 13V12.1914L83.3223 12.1211L83.5771 11.8486V5.63477H82.2764V4.91406L84.9219 4.07031H85.792L85.7129 5.90723C86.0234 5.5791 86.3545 5.2627 86.7061 4.95801C87.0576 4.64746 87.4268 4.35449 87.8135 4.0791C87.9131 4.06152 87.9922 4.0498 88.0508 4.04395C88.1152 4.03809 88.1709 4.03516 88.2178 4.03516C88.4111 4.03516 88.6045 4.06152 88.7979 4.11426C88.9971 4.16113 89.1992 4.2373 89.4043 4.34277L89.1758 6.83008H88.2354C88.1006 6.60742 87.9365 6.44336 87.7432 6.33789C87.5557 6.23242 87.3301 6.17969 87.0664 6.17969C86.9141 6.17969 86.7295 6.22363 86.5127 6.31152C86.3018 6.39355 86.0615 6.5166 85.792 6.68066V11.8486L86.0557 12.1211L87.3389 12.1914V13H82.3643ZM90.9336 5.54688H89.7646V4.86133L91.0918 4.10547L92.0322 2.2334H93.166V4.46582H95.8291V5.54688H93.166V10.0293C93.166 10.7031 93.2744 11.1631 93.4912 11.4092C93.708 11.6553 94.0977 11.7783 94.6602 11.7783C94.8828 11.7783 95.0879 11.7695 95.2754 11.752C95.4688 11.7285 95.6533 11.6963 95.8291 11.6553V12.5166C95.3135 12.7041 94.8213 12.8477 94.3525 12.9473C93.8896 13.041 93.4648 13.0879 93.0781 13.0879C92.7617 13.0879 92.4805 13.0557 92.2344 12.9912C91.9941 12.9268 91.7773 12.8271 91.584 12.6924C91.3438 12.5342 91.1738 12.3379 91.0742 12.1035C90.9805 11.8633 90.9336 11.4238 90.9336 10.7852V5.54688Z" fill="#fff"/>
</svg>
